<?xml version="1.0" encoding="UTF-8" standalone="no"?>
<!-- Created with Inkscape (http://www.inkscape.org/) -->

<svg
   width="292.60269mm"
   height="32.207729mm"
   viewBox="0 0 292.60269 32.207729"
   version="1.1"
   id="svg1"
   xml:space="preserve"
   inkscape:version="1.4 (86a8ad7, 2024-10-11)"
   sodipodi:docname="drawing.svg"
   xmlns:inkscape="http://www.inkscape.org/namespaces/inkscape"
   xmlns:sodipodi="http://sodipodi.sourceforge.net/DTD/sodipodi-0.dtd"
   xmlns:xlink="http://www.w3.org/1999/xlink"
   xmlns="http://www.w3.org/2000/svg"
   xmlns:svg="http://www.w3.org/2000/svg"
   xmlns:lucid="lucid"><sodipodi:namedview
     id="namedview1"
     pagecolor="#ffffff"
     bordercolor="#666666"
     borderopacity="1.0"
     inkscape:showpageshadow="2"
     inkscape:pageopacity="0.0"
     inkscape:pagecheckerboard="0"
     inkscape:deskcolor="#d1d1d1"
     inkscape:document-units="mm"
     inkscape:zoom="0.81513047"
     inkscape:cx="552.67226"
     inkscape:cy="60.726475"
     inkscape:window-width="1920"
     inkscape:window-height="1137"
     inkscape:window-x="1912"
     inkscape:window-y="-8"
     inkscape:window-maximized="1"
     inkscape:current-layer="g100" /><defs
     id="defs1"><path
       d="m 30,-248 c 118,-7 216,8 213,122 C 240,-48 200,0 122,0 H 30 Z m 33,221 c 89,8 146,-16 146,-99 0,-83 -60,-101 -146,-95 v 194"
       id="o" /><path
       d="M 33,0 V -248 H 67 V 0 H 33"
       id="p" /><path
       d="m 212,-179 c -10,-28 -35,-45 -73,-45 -59,0 -87,40 -87,99 0,60 29,101 89,101 43,0 62,-24 78,-52 l 27,14 C 228,-24 195,4 139,4 59,4 22,-46 18,-125 c -6,-104 99,-153 187,-111 19,9 31,26 39,46"
       id="q" /><path
       d="m 140,-251 c 81,0 123,46 123,126 C 263,-46 219,4 140,4 59,4 17,-45 17,-125 c 0,-80 42,-126 123,-126 z m 0,227 c 63,0 89,-41 89,-101 0,-60 -29,-99 -89,-99 -61,0 -89,39 -89,99 0,60 28,100 89,101"
       id="r" /><path
       d="m 240,0 2,-218 C 219,-142 188,-73 162,0 H 139 L 58,-218 59,0 H 30 v -248 h 44 l 77,211 c 21,-75 51,-140 76,-211 h 43 V 0 h -30"
       id="s" /><g
       id="a"><use
         transform="scale(0.0617284)"
         xlink:href="#o"
         id="use22" /><use
         transform="matrix(0.0617284,0,0,0.0617284,15.987654,0)"
         xlink:href="#p"
         id="use23" /><use
         transform="matrix(0.0617284,0,0,0.0617284,22.160494,0)"
         xlink:href="#q"
         id="use24" /><use
         transform="matrix(0.0617284,0,0,0.0617284,38.148148,0)"
         xlink:href="#r"
         id="use25" /><use
         transform="matrix(0.0617284,0,0,0.0617284,55.432099,0)"
         xlink:href="#s"
         id="use26" /></g><path
       d="m 101,-251 c 82,-7 93,87 43,132 L 82,-64 C 71,-53 59,-42 53,-27 H 182 V 0 H 18 c 2,-99 128,-94 128,-182 0,-28 -16,-43 -45,-43 -29,0 -46,15 -49,41 l -32,-3 c 6,-41 34,-60 81,-64"
       id="t" /><use
       transform="scale(0.0617284)"
       xlink:href="#t"
       id="b" /><path
       d="M 190,0 58,-211 59,0 H 30 v -248 h 39 l 133,213 -2,-213 h 31 V 0 h -41"
       id="u" /><path
       d="m 24,-231 v -30 h 32 v 30 z M 24,0 V -190 H 56 V 0 H 24"
       id="v" /><path
       d="m 101,-234 c -31,-9 -42,10 -38,44 h 38 v 23 H 63 V 0 H 32 V -167 H 5 v -23 h 27 c -7,-52 17,-82 69,-68 v 24"
       id="w" /><path
       d="m 59,-47 c -2,24 18,29 38,22 V -1 C 64,9 27,4 27,-40 V -167 H 5 v -23 h 24 l 9,-43 h 21 v 43 h 35 v 23 H 59 v 120"
       id="x" /><g
       id="c"><use
         transform="scale(0.0617284)"
         xlink:href="#u"
         id="use27" /><use
         transform="matrix(0.0617284,0,0,0.0617284,15.987654,0)"
         xlink:href="#v"
         id="use28" /><use
         transform="matrix(0.0617284,0,0,0.0617284,20.864198,0)"
         xlink:href="#w"
         id="use29" /><use
         transform="matrix(0.0617284,0,0,0.0617284,27.037037,0)"
         xlink:href="#x"
         id="use30" /><use
         transform="matrix(0.0617284,0,0,0.0617284,33.209877,0)"
         xlink:href="#v"
         id="use31" /></g><path
       d="m 233,-177 c -1,41 -23,64 -60,70 L 243,0 H 205 L 140,-103 H 63 V 0 H 30 v -248 c 88,3 205,-21 203,71 z m -170,48 c 60,-2 137,13 137,-47 0,-61 -80,-42 -137,-45 v 92"
       id="y" /><path
       d="m 100,-194 c 63,0 86,42 84,106 H 49 c 0,40 14,67 53,68 26,1 43,-12 49,-29 l 28,8 C 168,-13 142,4 102,4 44,4 14,-33 15,-96 c 1,-61 26,-98 85,-98 z m 52,81 c 6,-60 -76,-77 -97,-28 -3,7 -6,17 -6,28 h 103"
       id="z" /><path
       d="m 100,-194 c 62,-1 85,37 85,99 1,63 -27,99 -86,99 -59,0 -83,-39 -84,-99 0,-66 28,-99 85,-99 z m -1,174 c 44,1 53,-31 53,-75 0,-43 -8,-75 -51,-75 -43,0 -53,32 -53,75 0,43 10,74 51,75"
       id="A" /><path
       d="M 114,-163 C 36,-179 61,-72 57,0 H 25 l -1,-190 h 30 c 1,12 -1,29 2,39 6,-27 23,-49 58,-41 v 29"
       id="B" /><path
       d="m 117,-194 c 89,-4 53,116 60,194 h -32 v -121 c 0,-31 -8,-49 -39,-48 C 34,-167 62,-67 57,0 H 25 l -1,-190 h 30 c 1,10 -1,24 2,32 11,-22 29,-35 61,-36"
       id="C" /><g
       id="d"><use
         transform="scale(0.0617284)"
         xlink:href="#y"
         id="use32" /><use
         transform="matrix(0.0617284,0,0,0.0617284,15.987654,0)"
         xlink:href="#z"
         id="use33" /><use
         transform="matrix(0.0617284,0,0,0.0617284,28.333333,0)"
         xlink:href="#A"
         id="use34" /><use
         transform="matrix(0.0617284,0,0,0.0617284,40.679012,0)"
         xlink:href="#B"
         id="use35" /><use
         transform="matrix(0.0617284,0,0,0.0617284,48.024691,0)"
         xlink:href="#v"
         id="use36" /><use
         transform="matrix(0.0617284,0,0,0.0617284,52.901235,0)"
         xlink:href="#z"
         id="use37" /><use
         transform="matrix(0.0617284,0,0,0.0617284,65.246914,0)"
         xlink:href="#C"
         id="use38" /><use
         transform="matrix(0.0617284,0,0,0.0617284,77.592593,0)"
         xlink:href="#x"
         id="use39" /></g><g
       id="e"><use
         transform="scale(0.0617284)"
         xlink:href="#x"
         id="use40" /><use
         transform="matrix(0.0617284,0,0,0.0617284,6.1728395,0)"
         xlink:href="#A"
         id="use41" /></g><path
       d="M 30,0 V -248 H 63 V -27 H 188 V 0 H 30"
       id="D" /><path
       d="m 30,-248 c 87,1 191,-15 191,75 0,78 -77,80 -158,76 V 0 H 30 Z m 33,125 c 57,0 124,11 124,-50 0,-59 -68,-47 -124,-48 v 98"
       id="E" /><path
       d="m 185,-189 c -5,-48 -123,-54 -124,2 14,75 158,14 163,119 C 227,10 103,19 49,-13 32,-23 21,-39 16,-59 l 33,-7 c 5,56 141,63 141,-1 0,-78 -155,-14 -162,-118 -5,-82 145,-84 179,-34 5,7 8,16 11,25"
       id="F" /><g
       id="f"><use
         transform="scale(0.0617284)"
         xlink:href="#D"
         id="use42" /><use
         transform="matrix(0.0617284,0,0,0.0617284,12.345679,0)"
         xlink:href="#E"
         id="use43" /><use
         transform="matrix(0.0617284,0,0,0.0617284,27.160494,0)"
         xlink:href="#F"
         id="use44" /></g><path
       d="m 16,-82 v -28 h 88 v 28 H 16"
       id="G" /><path
       d="M 177,-190 C 167,-65 218,103 67,71 44,65 29,51 23,28 L 55,23 C 70,70 155,55 144,-5 V -35 C 133,-14 115,1 83,1 29,1 15,-40 15,-95 c 0,-56 16,-97 71,-98 29,-1 48,16 59,35 1,-10 0,-23 2,-32 z M 94,-22 c 36,0 50,-32 50,-73 0,-42 -14,-75 -50,-75 -39,0 -46,34 -46,75 0,41 6,73 46,73"
       id="H" /><path
       d="m 135,-143 c -3,-34 -86,-38 -87,0 15,53 115,12 119,90 4,78 -150,74 -157,8 l 28,-5 c 4,36 97,45 98,0 -10,-56 -113,-15 -118,-90 -4,-57 82,-63 122,-42 12,7 21,19 24,35"
       id="I" /><g
       id="g"><use
         transform="scale(0.0617284)"
         xlink:href="#q"
         id="use45" /><use
         transform="matrix(0.0617284,0,0,0.0617284,15.987654,0)"
         xlink:href="#A"
         id="use46" /><use
         transform="matrix(0.0617284,0,0,0.0617284,28.333333,0)"
         xlink:href="#G"
         id="use47" /><use
         transform="matrix(0.0617284,0,0,0.0617284,35.679012,0)"
         xlink:href="#B"
         id="use48" /><use
         transform="matrix(0.0617284,0,0,0.0617284,43.024691,0)"
         xlink:href="#z"
         id="use49" /><use
         transform="matrix(0.0617284,0,0,0.0617284,55.37037,0)"
         xlink:href="#H"
         id="use50" /><use
         transform="matrix(0.0617284,0,0,0.0617284,67.716049,0)"
         xlink:href="#v"
         id="use51" /><use
         transform="matrix(0.0617284,0,0,0.0617284,72.592593,0)"
         xlink:href="#I"
         id="use52" /><use
         transform="matrix(0.0617284,0,0,0.0617284,83.703704,0)"
         xlink:href="#x"
         id="use53" /><use
         transform="matrix(0.0617284,0,0,0.0617284,89.876543,0)"
         xlink:href="#z"
         id="use54" /><use
         transform="matrix(0.0617284,0,0,0.0617284,102.22222,0)"
         xlink:href="#B"
         id="use55" /></g><path
       d="M 141,-36 C 126,-15 110,5 73,4 37,3 15,-17 15,-53 c -1,-64 63,-63 125,-63 3,-35 -9,-54 -41,-54 -24,1 -41,7 -42,31 l -33,-3 c 5,-37 33,-52 76,-52 45,0 72,20 72,64 v 82 c -1,20 7,32 28,27 V -1 C 169,8 139,-3 141,-36 Z M 48,-53 c 0,20 12,33 32,33 41,-3 63,-29 60,-74 -43,2 -92,-5 -92,41"
       id="J" /><path
       d="m 85,-194 c 31,0 48,13 60,33 l -1,-100 h 32 l 1,261 h -30 c -2,-10 0,-23 -3,-31 C 134,-8 116,4 85,4 32,4 16,-35 15,-94 c 0,-66 23,-100 70,-100 z m 9,24 c -40,0 -46,34 -46,75 0,40 6,74 45,74 42,0 51,-32 51,-76 0,-42 -9,-74 -50,-73"
       id="K" /><g
       id="h"><use
         transform="scale(0.0617284)"
         xlink:href="#J"
         id="use56" /><use
         transform="matrix(0.0617284,0,0,0.0617284,12.345679,0)"
         xlink:href="#C"
         id="use57" /><use
         transform="matrix(0.0617284,0,0,0.0617284,24.691358,0)"
         xlink:href="#K"
         id="use58" /></g><path
       d="m 210,-169 c -67,3 -38,105 -44,169 h -31 v -121 c 0,-29 -5,-50 -35,-48 C 34,-165 62,-65 56,0 H 25 l -1,-190 h 30 c 1,10 -1,24 2,32 10,-44 99,-50 107,0 11,-21 27,-35 58,-36 85,-2 47,119 55,194 h -31 v -121 c 0,-29 -5,-49 -35,-48"
       id="L" /><path
       d="m 115,-194 c 55,1 70,41 70,98 C 185,-39 169,2 115,4 84,4 66,-9 55,-30 L 56,75 H 24 l -1,-265 h 31 l 2,30 c 10,-21 28,-34 59,-34 z m -8,174 c 40,0 45,-34 45,-75 0,-41 -6,-73 -45,-74 -42,0 -51,32 -51,76 0,43 10,73 51,73"
       id="M" /><path
       d="M 24,0 V -261 H 56 V 0 H 24"
       id="N" /><g
       id="i"><use
         transform="scale(0.0617284)"
         xlink:href="#y"
         id="use59" /><use
         transform="matrix(0.0617284,0,0,0.0617284,15.987654,0)"
         xlink:href="#z"
         id="use60" /><use
         transform="matrix(0.0617284,0,0,0.0617284,28.333333,0)"
         xlink:href="#I"
         id="use61" /><use
         transform="matrix(0.0617284,0,0,0.0617284,39.444444,0)"
         xlink:href="#J"
         id="use62" /><use
         transform="matrix(0.0617284,0,0,0.0617284,51.790123,0)"
         xlink:href="#L"
         id="use63" /><use
         transform="matrix(0.0617284,0,0,0.0617284,70.246914,0)"
         xlink:href="#M"
         id="use64" /><use
         transform="matrix(0.0617284,0,0,0.0617284,82.592593,0)"
         xlink:href="#N"
         id="use65" /><use
         transform="matrix(0.0617284,0,0,0.0617284,87.469136,0)"
         xlink:href="#z"
         id="use66" /></g><path
       d="m 160,-131 c 35,5 61,23 61,61 0,87 -106,68 -191,70 v -248 c 76,3 177,-17 177,60 0,33 -19,50 -47,57 z m -97,-11 c 50,-1 110,9 110,-42 0,-47 -63,-36 -110,-37 z m 0,115 c 55,-2 124,14 124,-45 0,-56 -70,-42 -124,-44 v 89"
       id="O" /><g
       id="j"><use
         transform="scale(0.0617284)"
         xlink:href="#O"
         id="use67" /><use
         transform="matrix(0.0617284,0,0,0.0617284,14.814815,0)"
         xlink:href="#B"
         id="use68" /><use
         transform="matrix(0.0617284,0,0,0.0617284,22.160494,0)"
         xlink:href="#J"
         id="use69" /><use
         transform="matrix(0.0617284,0,0,0.0617284,34.506173,0)"
         xlink:href="#v"
         id="use70" /><use
         transform="matrix(0.0617284,0,0,0.0617284,39.382716,0)"
         xlink:href="#C"
         id="use71" /></g><path
       d="m 30,0 v -248 h 187 v 28 H 63 v 79 h 144 v 27 H 63 v 87 H 225 V 0 H 30"
       id="P" /><path
       d="M 141,0 90,-78 38,0 H 4 L 72,-98 7,-190 h 35 l 48,74 47,-74 h 35 l -64,92 68,98 h -35"
       id="Q" /><path
       d="m 96,-169 c -40,0 -48,33 -48,73 0,40 9,75 48,75 24,0 41,-14 43,-38 l 32,2 C 165,-20 140,4 97,4 38,4 21,-37 15,-95 c -10,-93 101,-131 147,-64 4,7 5,14 7,22 l -32,3 c -4,-21 -16,-35 -41,-35"
       id="R" /><g
       id="k"><use
         transform="scale(0.0617284)"
         xlink:href="#P"
         id="use72" /><use
         transform="matrix(0.0617284,0,0,0.0617284,14.814815,0)"
         xlink:href="#Q"
         id="use73" /><use
         transform="matrix(0.0617284,0,0,0.0617284,25.925926,0)"
         xlink:href="#x"
         id="use74" /><use
         transform="matrix(0.0617284,0,0,0.0617284,32.098765,0)"
         xlink:href="#B"
         id="use75" /><use
         transform="matrix(0.0617284,0,0,0.0617284,39.444444,0)"
         xlink:href="#J"
         id="use76" /><use
         transform="matrix(0.0617284,0,0,0.0617284,51.790123,0)"
         xlink:href="#R"
         id="use77" /><use
         transform="matrix(0.0617284,0,0,0.0617284,62.901235,0)"
         xlink:href="#x"
         id="use78" /><use
         transform="matrix(0.0617284,0,0,0.0617284,69.074074,0)"
         xlink:href="#v"
         id="use79" /><use
         transform="matrix(0.0617284,0,0,0.0617284,73.950617,0)"
         xlink:href="#A"
         id="use80" /><use
         transform="matrix(0.0617284,0,0,0.0617284,86.296296,0)"
         xlink:href="#C"
         id="use81" /></g><g
       id="l"><use
         transform="scale(0.0617284)"
         xlink:href="#O"
         id="use82" /><use
         transform="matrix(0.0617284,0,0,0.0617284,14.814815,0)"
         xlink:href="#v"
         id="use83" /><use
         transform="matrix(0.0617284,0,0,0.0617284,19.691358,0)"
         xlink:href="#J"
         id="use84" /><use
         transform="matrix(0.0617284,0,0,0.0617284,32.037037,0)"
         xlink:href="#I"
         id="use85" /></g><path
       d="m 63,-220 v 92 h 138 v 28 H 63 V 0 H 30 v -248 h 175 v 28 H 63"
       id="S" /><g
       id="m"><use
         transform="scale(0.0617284)"
         xlink:href="#S"
         id="use86" /><use
         transform="matrix(0.0617284,0,0,0.0617284,13.518519,0)"
         xlink:href="#v"
         id="use87" /><use
         transform="matrix(0.0617284,0,0,0.0617284,18.395062,0)"
         xlink:href="#z"
         id="use88" /><use
         transform="matrix(0.0617284,0,0,0.0617284,30.740741,0)"
         xlink:href="#N"
         id="use89" /><use
         transform="matrix(0.0617284,0,0,0.0617284,35.617284,0)"
         xlink:href="#K"
         id="use90" /></g><g
       id="n"><use
         transform="scale(0.0617284)"
         xlink:href="#q"
         id="use91" /><use
         transform="matrix(0.0617284,0,0,0.0617284,15.987654,0)"
         xlink:href="#A"
         id="use92" /><use
         transform="matrix(0.0617284,0,0,0.0617284,28.333333,0)"
         xlink:href="#B"
         id="use93" /><use
         transform="matrix(0.0617284,0,0,0.0617284,35.679012,0)"
         xlink:href="#B"
         id="use94" /><use
         transform="matrix(0.0617284,0,0,0.0617284,43.024691,0)"
         xlink:href="#z"
         id="use95" /><use
         transform="matrix(0.0617284,0,0,0.0617284,55.37037,0)"
         xlink:href="#R"
         id="use96" /><use
         transform="matrix(0.0617284,0,0,0.0617284,66.481481,0)"
         xlink:href="#x"
         id="use97" /><use
         transform="matrix(0.0617284,0,0,0.0617284,72.654321,0)"
         xlink:href="#v"
         id="use98" /><use
         transform="matrix(0.0617284,0,0,0.0617284,77.530864,0)"
         xlink:href="#A"
         id="use99" /><use
         transform="matrix(0.0617284,0,0,0.0617284,89.876543,0)"
         xlink:href="#C"
         id="use100" /></g></defs><g
     inkscape:label="Layer 1"
     inkscape:groupmode="layer"
     id="layer1"
     transform="translate(41.261764,-132.32739)"><g
       transform="matrix(0.26458333,0,0,0.26458333,1465.5403,313.74424)"
       lucid:page-tab-id="0_0"
       id="g100"><defs
         id="defs100"><path
           d="m 30,-248 c 118,-7 216,8 213,122 C 240,-48 200,0 122,0 H 30 Z m 33,221 c 89,8 146,-16 146,-99 0,-83 -60,-101 -146,-95 v 194"
           id="path2" /><path
           d="M 33,0 V -248 H 67 V 0 H 33"
           id="path4" /><path
           d="m 212,-179 c -10,-28 -35,-45 -73,-45 -59,0 -87,40 -87,99 0,60 29,101 89,101 43,0 62,-24 78,-52 l 27,14 C 228,-24 195,4 139,4 59,4 22,-46 18,-125 c -6,-104 99,-153 187,-111 19,9 31,26 39,46"
           id="path5" /><path
           d="m 140,-251 c 81,0 123,46 123,126 C 263,-46 219,4 140,4 59,4 17,-45 17,-125 c 0,-80 42,-126 123,-126 z m 0,227 c 63,0 89,-41 89,-101 0,-60 -29,-99 -89,-99 -61,0 -89,39 -89,99 0,60 28,100 89,101"
           id="path10" /><path
           d="m 240,0 2,-218 C 219,-142 188,-73 162,0 H 139 L 58,-218 59,0 H 30 v -248 h 44 l 77,211 c 21,-75 51,-140 76,-211 h 43 V 0 h -30"
           id="path19" /><g
           id="g104"><use
             transform="scale(0.0617284)"
             xlink:href="#o"
             id="use21" /><use
             transform="matrix(0.0617284,0,0,0.0617284,15.987654,0)"
             xlink:href="#p"
             id="use101" /><use
             transform="matrix(0.0617284,0,0,0.0617284,22.160494,0)"
             xlink:href="#q"
             id="use102" /><use
             transform="matrix(0.0617284,0,0,0.0617284,38.148148,0)"
             xlink:href="#r"
             id="use103" /><use
             transform="matrix(0.0617284,0,0,0.0617284,55.432099,0)"
             xlink:href="#s"
             id="use104" /></g><path
           d="m 101,-251 c 82,-7 93,87 43,132 L 82,-64 C 71,-53 59,-42 53,-27 H 182 V 0 H 18 c 2,-99 128,-94 128,-182 0,-28 -16,-43 -45,-43 -29,0 -46,15 -49,41 l -32,-3 c 6,-41 34,-60 81,-64"
           id="path104" /><use
           transform="scale(0.0617284)"
           xlink:href="#t"
           id="use105" /><path
           d="M 190,0 58,-211 59,0 H 30 v -248 h 39 l 133,213 -2,-213 h 31 V 0 h -41"
           id="path105" /><path
           d="m 24,-231 v -30 h 32 v 30 z M 24,0 V -190 H 56 V 0 H 24"
           id="path106" /><path
           d="m 101,-234 c -31,-9 -42,10 -38,44 h 38 v 23 H 63 V 0 H 32 V -167 H 5 v -23 h 27 c -7,-52 17,-82 69,-68 v 24"
           id="path107" /><path
           d="m 59,-47 c -2,24 18,29 38,22 V -1 C 64,9 27,4 27,-40 V -167 H 5 v -23 h 24 l 9,-43 h 21 v 43 h 35 v 23 H 59 v 120"
           id="path108" /><g
           id="g112"><use
             transform="scale(0.0617284)"
             xlink:href="#u"
             id="use108" /><use
             transform="matrix(0.0617284,0,0,0.0617284,15.987654,0)"
             xlink:href="#v"
             id="use109" /><use
             transform="matrix(0.0617284,0,0,0.0617284,20.864198,0)"
             xlink:href="#w"
             id="use110" /><use
             transform="matrix(0.0617284,0,0,0.0617284,27.037037,0)"
             xlink:href="#x"
             id="use111" /><use
             transform="matrix(0.0617284,0,0,0.0617284,33.209877,0)"
             xlink:href="#v"
             id="use112" /></g><path
           d="m 233,-177 c -1,41 -23,64 -60,70 L 243,0 H 205 L 140,-103 H 63 V 0 H 30 v -248 c 88,3 205,-21 203,71 z m -170,48 c 60,-2 137,13 137,-47 0,-61 -80,-42 -137,-45 v 92"
           id="path112" /><path
           d="m 100,-194 c 63,0 86,42 84,106 H 49 c 0,40 14,67 53,68 26,1 43,-12 49,-29 l 28,8 C 168,-13 142,4 102,4 44,4 14,-33 15,-96 c 1,-61 26,-98 85,-98 z m 52,81 c 6,-60 -76,-77 -97,-28 -3,7 -6,17 -6,28 h 103"
           id="path113" /><path
           d="m 100,-194 c 62,-1 85,37 85,99 1,63 -27,99 -86,99 -59,0 -83,-39 -84,-99 0,-66 28,-99 85,-99 z m -1,174 c 44,1 53,-31 53,-75 0,-43 -8,-75 -51,-75 -43,0 -53,32 -53,75 0,43 10,74 51,75"
           id="path114" /><path
           d="M 114,-163 C 36,-179 61,-72 57,0 H 25 l -1,-190 h 30 c 1,12 -1,29 2,39 6,-27 23,-49 58,-41 v 29"
           id="path115" /><path
           d="m 117,-194 c 89,-4 53,116 60,194 h -32 v -121 c 0,-31 -8,-49 -39,-48 C 34,-167 62,-67 57,0 H 25 l -1,-190 h 30 c 1,10 -1,24 2,32 11,-22 29,-35 61,-36"
           id="path116" /><g
           id="g123"><use
             transform="scale(0.0617284)"
             xlink:href="#y"
             id="use116" /><use
             transform="matrix(0.0617284,0,0,0.0617284,15.987654,0)"
             xlink:href="#z"
             id="use117" /><use
             transform="matrix(0.0617284,0,0,0.0617284,28.333333,0)"
             xlink:href="#A"
             id="use118" /><use
             transform="matrix(0.0617284,0,0,0.0617284,40.679012,0)"
             xlink:href="#B"
             id="use119" /><use
             transform="matrix(0.0617284,0,0,0.0617284,48.024691,0)"
             xlink:href="#v"
             id="use120" /><use
             transform="matrix(0.0617284,0,0,0.0617284,52.901235,0)"
             xlink:href="#z"
             id="use121" /><use
             transform="matrix(0.0617284,0,0,0.0617284,65.246914,0)"
             xlink:href="#C"
             id="use122" /><use
             transform="matrix(0.0617284,0,0,0.0617284,77.592593,0)"
             xlink:href="#x"
             id="use123" /></g><g
           id="g125"><use
             transform="scale(0.0617284)"
             xlink:href="#x"
             id="use124" /><use
             transform="matrix(0.0617284,0,0,0.0617284,6.1728395,0)"
             xlink:href="#A"
             id="use125" /></g><path
           d="M 30,0 V -248 H 63 V -27 H 188 V 0 H 30"
           id="path125" /><path
           d="m 30,-248 c 87,1 191,-15 191,75 0,78 -77,80 -158,76 V 0 H 30 Z m 33,125 c 57,0 124,11 124,-50 0,-59 -68,-47 -124,-48 v 98"
           id="path126" /><path
           d="m 185,-189 c -5,-48 -123,-54 -124,2 14,75 158,14 163,119 C 227,10 103,19 49,-13 32,-23 21,-39 16,-59 l 33,-7 c 5,56 141,63 141,-1 0,-78 -155,-14 -162,-118 -5,-82 145,-84 179,-34 5,7 8,16 11,25"
           id="path127" /><g
           id="g129"><use
             transform="scale(0.0617284)"
             xlink:href="#D"
             id="use127" /><use
             transform="matrix(0.0617284,0,0,0.0617284,12.345679,0)"
             xlink:href="#E"
             id="use128" /><use
             transform="matrix(0.0617284,0,0,0.0617284,27.160494,0)"
             xlink:href="#F"
             id="use129" /></g><path
           d="m 16,-82 v -28 h 88 v 28 H 16"
           id="path129" /><path
           d="M 177,-190 C 167,-65 218,103 67,71 44,65 29,51 23,28 L 55,23 C 70,70 155,55 144,-5 V -35 C 133,-14 115,1 83,1 29,1 15,-40 15,-95 c 0,-56 16,-97 71,-98 29,-1 48,16 59,35 1,-10 0,-23 2,-32 z M 94,-22 c 36,0 50,-32 50,-73 0,-42 -14,-75 -50,-75 -39,0 -46,34 -46,75 0,41 6,73 46,73"
           id="path130" /><path
           d="m 135,-143 c -3,-34 -86,-38 -87,0 15,53 115,12 119,90 4,78 -150,74 -157,8 l 28,-5 c 4,36 97,45 98,0 -10,-56 -113,-15 -118,-90 -4,-57 82,-63 122,-42 12,7 21,19 24,35"
           id="path131" /><g
           id="g141"><use
             transform="scale(0.0617284)"
             xlink:href="#q"
             id="use131" /><use
             transform="matrix(0.0617284,0,0,0.0617284,15.987654,0)"
             xlink:href="#A"
             id="use132" /><use
             transform="matrix(0.0617284,0,0,0.0617284,28.333333,0)"
             xlink:href="#G"
             id="use133" /><use
             transform="matrix(0.0617284,0,0,0.0617284,35.679012,0)"
             xlink:href="#B"
             id="use134" /><use
             transform="matrix(0.0617284,0,0,0.0617284,43.024691,0)"
             xlink:href="#z"
             id="use135" /><use
             transform="matrix(0.0617284,0,0,0.0617284,55.37037,0)"
             xlink:href="#H"
             id="use136" /><use
             transform="matrix(0.0617284,0,0,0.0617284,67.716049,0)"
             xlink:href="#v"
             id="use137" /><use
             transform="matrix(0.0617284,0,0,0.0617284,72.592593,0)"
             xlink:href="#I"
             id="use138" /><use
             transform="matrix(0.0617284,0,0,0.0617284,83.703704,0)"
             xlink:href="#x"
             id="use139" /><use
             transform="matrix(0.0617284,0,0,0.0617284,89.876543,0)"
             xlink:href="#z"
             id="use140" /><use
             transform="matrix(0.0617284,0,0,0.0617284,102.22222,0)"
             xlink:href="#B"
             id="use141" /></g><path
           d="M 141,-36 C 126,-15 110,5 73,4 37,3 15,-17 15,-53 c -1,-64 63,-63 125,-63 3,-35 -9,-54 -41,-54 -24,1 -41,7 -42,31 l -33,-3 c 5,-37 33,-52 76,-52 45,0 72,20 72,64 v 82 c -1,20 7,32 28,27 V -1 C 169,8 139,-3 141,-36 Z M 48,-53 c 0,20 12,33 32,33 41,-3 63,-29 60,-74 -43,2 -92,-5 -92,41"
           id="path141" /><path
           d="m 85,-194 c 31,0 48,13 60,33 l -1,-100 h 32 l 1,261 h -30 c -2,-10 0,-23 -3,-31 C 134,-8 116,4 85,4 32,4 16,-35 15,-94 c 0,-66 23,-100 70,-100 z m 9,24 c -40,0 -46,34 -46,75 0,40 6,74 45,74 42,0 51,-32 51,-76 0,-42 -9,-74 -50,-73"
           id="path142" /><g
           id="g144"><use
             transform="scale(0.0617284)"
             xlink:href="#J"
             id="use142" /><use
             transform="matrix(0.0617284,0,0,0.0617284,12.345679,0)"
             xlink:href="#C"
             id="use143" /><use
             transform="matrix(0.0617284,0,0,0.0617284,24.691358,0)"
             xlink:href="#K"
             id="use144" /></g><path
           d="m 210,-169 c -67,3 -38,105 -44,169 h -31 v -121 c 0,-29 -5,-50 -35,-48 C 34,-165 62,-65 56,0 H 25 l -1,-190 h 30 c 1,10 -1,24 2,32 10,-44 99,-50 107,0 11,-21 27,-35 58,-36 85,-2 47,119 55,194 h -31 v -121 c 0,-29 -5,-49 -35,-48"
           id="path144" /><path
           d="m 115,-194 c 55,1 70,41 70,98 C 185,-39 169,2 115,4 84,4 66,-9 55,-30 L 56,75 H 24 l -1,-265 h 31 l 2,30 c 10,-21 28,-34 59,-34 z m -8,174 c 40,0 45,-34 45,-75 0,-41 -6,-73 -45,-74 -42,0 -51,32 -51,76 0,43 10,73 51,73"
           id="path145" /><path
           d="M 24,0 V -261 H 56 V 0 H 24"
           id="path146" /><g
           id="g153"><use
             transform="scale(0.0617284)"
             xlink:href="#y"
             id="use146" /><use
             transform="matrix(0.0617284,0,0,0.0617284,15.987654,0)"
             xlink:href="#z"
             id="use147" /><use
             transform="matrix(0.0617284,0,0,0.0617284,28.333333,0)"
             xlink:href="#I"
             id="use148" /><use
             transform="matrix(0.0617284,0,0,0.0617284,39.444444,0)"
             xlink:href="#J"
             id="use149" /><use
             transform="matrix(0.0617284,0,0,0.0617284,51.790123,0)"
             xlink:href="#L"
             id="use150" /><use
             transform="matrix(0.0617284,0,0,0.0617284,70.246914,0)"
             xlink:href="#M"
             id="use151" /><use
             transform="matrix(0.0617284,0,0,0.0617284,82.592593,0)"
             xlink:href="#N"
             id="use152" /><use
             transform="matrix(0.0617284,0,0,0.0617284,87.469136,0)"
             xlink:href="#z"
             id="use153" /></g><path
           d="m 160,-131 c 35,5 61,23 61,61 0,87 -106,68 -191,70 v -248 c 76,3 177,-17 177,60 0,33 -19,50 -47,57 z m -97,-11 c 50,-1 110,9 110,-42 0,-47 -63,-36 -110,-37 z m 0,115 c 55,-2 124,14 124,-45 0,-56 -70,-42 -124,-44 v 89"
           id="path153" /><g
           id="g158"><use
             transform="scale(0.0617284)"
             xlink:href="#O"
             id="use154" /><use
             transform="matrix(0.0617284,0,0,0.0617284,14.814815,0)"
             xlink:href="#B"
             id="use155" /><use
             transform="matrix(0.0617284,0,0,0.0617284,22.160494,0)"
             xlink:href="#J"
             id="use156" /><use
             transform="matrix(0.0617284,0,0,0.0617284,34.506173,0)"
             xlink:href="#v"
             id="use157" /><use
             transform="matrix(0.0617284,0,0,0.0617284,39.382716,0)"
             xlink:href="#C"
             id="use158" /></g><path
           d="m 30,0 v -248 h 187 v 28 H 63 v 79 h 144 v 27 H 63 v 87 H 225 V 0 H 30"
           id="path158" /><path
           d="M 141,0 90,-78 38,0 H 4 L 72,-98 7,-190 h 35 l 48,74 47,-74 h 35 l -64,92 68,98 h -35"
           id="path159" /><path
           d="m 96,-169 c -40,0 -48,33 -48,73 0,40 9,75 48,75 24,0 41,-14 43,-38 l 32,2 C 165,-20 140,4 97,4 38,4 21,-37 15,-95 c -10,-93 101,-131 147,-64 4,7 5,14 7,22 l -32,3 c -4,-21 -16,-35 -41,-35"
           id="path160" /><g
           id="g169"><use
             transform="scale(0.0617284)"
             xlink:href="#P"
             id="use160" /><use
             transform="matrix(0.0617284,0,0,0.0617284,14.814815,0)"
             xlink:href="#Q"
             id="use161" /><use
             transform="matrix(0.0617284,0,0,0.0617284,25.925926,0)"
             xlink:href="#x"
             id="use162" /><use
             transform="matrix(0.0617284,0,0,0.0617284,32.098765,0)"
             xlink:href="#B"
             id="use163" /><use
             transform="matrix(0.0617284,0,0,0.0617284,39.444444,0)"
             xlink:href="#J"
             id="use164" /><use
             transform="matrix(0.0617284,0,0,0.0617284,51.790123,0)"
             xlink:href="#R"
             id="use165" /><use
             transform="matrix(0.0617284,0,0,0.0617284,62.901235,0)"
             xlink:href="#x"
             id="use166" /><use
             transform="matrix(0.0617284,0,0,0.0617284,69.074074,0)"
             xlink:href="#v"
             id="use167" /><use
             transform="matrix(0.0617284,0,0,0.0617284,73.950617,0)"
             xlink:href="#A"
             id="use168" /><use
             transform="matrix(0.0617284,0,0,0.0617284,86.296296,0)"
             xlink:href="#C"
             id="use169" /></g><g
           id="g173"><use
             transform="scale(0.0617284)"
             xlink:href="#O"
             id="use170" /><use
             transform="matrix(0.0617284,0,0,0.0617284,14.814815,0)"
             xlink:href="#v"
             id="use171" /><use
             transform="matrix(0.0617284,0,0,0.0617284,19.691358,0)"
             xlink:href="#J"
             id="use172" /><use
             transform="matrix(0.0617284,0,0,0.0617284,32.037037,0)"
             xlink:href="#I"
             id="use173" /></g><path
           d="m 63,-220 v 92 h 138 v 28 H 63 V 0 H 30 v -248 h 175 v 28 H 63"
           id="path173" /><g
           id="g178"><use
             transform="scale(0.0617284)"
             xlink:href="#S"
             id="use174" /><use
             transform="matrix(0.0617284,0,0,0.0617284,13.518519,0)"
             xlink:href="#v"
             id="use175" /><use
             transform="matrix(0.0617284,0,0,0.0617284,18.395062,0)"
             xlink:href="#z"
             id="use176" /><use
             transform="matrix(0.0617284,0,0,0.0617284,30.740741,0)"
             xlink:href="#N"
             id="use177" /><use
             transform="matrix(0.0617284,0,0,0.0617284,35.617284,0)"
             xlink:href="#K"
             id="use178" /></g><g
           id="g188"><use
             transform="scale(0.0617284)"
             xlink:href="#q"
             id="use179" /><use
             transform="matrix(0.0617284,0,0,0.0617284,15.987654,0)"
             xlink:href="#A"
             id="use180" /><use
             transform="matrix(0.0617284,0,0,0.0617284,28.333333,0)"
             xlink:href="#B"
             id="use181" /><use
             transform="matrix(0.0617284,0,0,0.0617284,35.679012,0)"
             xlink:href="#B"
             id="use182" /><use
             transform="matrix(0.0617284,0,0,0.0617284,43.024691,0)"
             xlink:href="#z"
             id="use183" /><use
             transform="matrix(0.0617284,0,0,0.0617284,55.37037,0)"
             xlink:href="#R"
             id="use184" /><use
             transform="matrix(0.0617284,0,0,0.0617284,66.481481,0)"
             xlink:href="#x"
             id="use185" /><use
             transform="matrix(0.0617284,0,0,0.0617284,72.654321,0)"
             xlink:href="#v"
             id="use186" /><use
             transform="matrix(0.0617284,0,0,0.0617284,77.530864,0)"
             xlink:href="#A"
             id="use187" /><use
             transform="matrix(0.0617284,0,0,0.0617284,89.876543,0)"
             xlink:href="#C"
             id="use188" /></g></defs><g
         id="g190"><path
           d="m -5694.5,-679.17 a 6,6 0 0 1 6,-6 h 151.8 a 6,6 0 0 1 6,6 v 108 a 6,6 0 0 1 -6,6 h -151.8 a 6,6 0 0 1 -6,-6 z"
           stroke="#5e5e5e"
           fill="#ffbe98"
           id="path1" /><use
           xlink:href="#a"
           transform="translate(-5680.8215,-619.39455)"
           id="use1" /><use
           xlink:href="#b"
           transform="translate(-5600.7598,-619.39455)"
           id="use2" /><use
           xlink:href="#c"
           transform="translate(-5582.2413,-619.39455)"
           id="use3" /><path
           d="m -5455.77,-679.17 a 6,6 0 0 1 6,-6 h 148 a 6,6 0 0 1 6,6 v 108 a 6,6 0 0 1 -6,6 h -148 a 6,6 0 0 1 -6,-6 z"
           stroke="#5e5e5e"
           fill="#feece2"
           id="path3" /><use
           xlink:href="#d"
           transform="translate(-5429.9942,-634.39455)"
           id="use4" /><use
           xlink:href="#e"
           transform="translate(-5340.0559,-634.39455)"
           id="use5" /><use
           xlink:href="#f"
           transform="translate(-5396.7534,-607.72788)"
           id="use6" /><path
           d="m -5529.2,-625.17 h 54.43"
           stroke="#5e5e5e"
           stroke-width="2"
           fill="none"
           id="path6" /><path
           d="m -5529.18,-624.2 h -1.03 v -1.95 h 1.02 z"
           stroke="#5e5e5e"
           stroke-width="0.05"
           fill="#5e5e5e"
           id="path7" /><path
           d="m -5459.5,-625.17 -14.27,4.63 v -9.27 z"
           stroke="#5e5e5e"
           stroke-width="2"
           fill="#5e5e5e"
           id="path8" /><path
           d="m -5228.35,-678.44 a 6,6 0 0 1 6,-6 h 148 a 6,6 0 0 1 6,6 v 108 a 6,6 0 0 1 -6,6 h -148 a 6,6 0 0 1 -6,-6 z"
           stroke="#5e5e5e"
           fill="#f7ded0"
           id="path9" /><use
           xlink:href="#g"
           transform="translate(-5203.1304,-645.66164)"
           id="use9" /><use
           xlink:href="#h"
           transform="translate(-5166.865,-618.99497)"
           id="use10" /><use
           xlink:href="#i"
           transform="translate(-5198.2539,-592.32831)"
           id="use11" /><path
           d="m -5294.27,-625.17 h 46.92"
           stroke="#5e5e5e"
           stroke-width="2"
           fill="none"
           id="path11" /><path
           d="m -5294.24,-624.2 h -1.03 v -1.95 h 1.03 z"
           stroke="#5e5e5e"
           stroke-width="0.05"
           fill="#5e5e5e"
           id="path12" /><path
           d="m -5232.08,-625.17 -14.27,4.63 v -9.27 z"
           stroke="#5e5e5e"
           stroke-width="2"
           fill="#5e5e5e"
           id="path13" /><path
           d="m -4988.98,-679.17 a 6,6 0 0 1 6,-6 h 148 a 6,6 0 0 1 6,6 v 108 a 6,6 0 0 1 -6,6 h -148 a 6,6 0 0 1 -6,-6 z"
           stroke="#5e5e5e"
           fill="#e2bfb3"
           id="path14" /><path
           d="m -5066.85,-624.44 h 58.87"
           stroke="#5e5e5e"
           stroke-width="2"
           fill="none"
           id="path15" /><path
           d="m -5066.82,-623.46 h -1.03 v -1.95 h 1.03 z"
           stroke="#5e5e5e"
           stroke-width="0.05"
           fill="#5e5e5e"
           id="path16" /><path
           d="m -4992.7,-624.44 -14.28,4.64 v -9.28 z"
           stroke="#5e5e5e"
           stroke-width="2"
           fill="#5e5e5e"
           id="path17" /><path
           d="m -4749.6,-678.85 a 6,6 0 0 1 6,-6 h 148 a 6,6 0 0 1 6,6 v 108 a 6,6 0 0 1 -6,6 h -148 a 6,6 0 0 1 -6,-6 z"
           stroke="#5e5e5e"
           fill="#fff3d9"
           id="path18" /><g
           id="g20"
           transform="translate(-239.25798,3.4980644)"><use
             xlink:href="#l"
             transform="translate(-4718.2483,-634.0693)"
             id="use18" /><use
             xlink:href="#m"
             transform="translate(-4668.9273,-634.0693)"
             id="use19" /><use
             xlink:href="#n"
             transform="translate(-4720.7174,-607.40263)"
             id="use20" /></g><path
           d="m -4827.48,-625.17 h 58.87"
           stroke="#5e5e5e"
           stroke-width="2"
           fill="none"
           id="path20" /><path
           d="m -4827.45,-624.2 h -1.03 v -1.95 h 1.03 z"
           stroke="#5e5e5e"
           stroke-width="0.05"
           fill="#5e5e5e"
           id="path21" /><path
           d="m -4753.34,-625.17 -14.27,4.63 v -9.27 z"
           stroke="#5e5e5e"
           stroke-width="2"
           fill="#5e5e5e"
           id="path22" /><g
           id="g189"
           transform="translate(-0.11131588,-0.76498637)"><use
             xlink:href="#j"
             transform="translate(-4695.6151,-629.48736)"
             id="use14" /><use
             xlink:href="#k"
             transform="translate(-4719.0719,-602.82069)"
             id="use15" /></g></g></g></g></svg>
